<svg width="56" height="66" viewBox="0 0 56 66" fill="none" xmlns="http://www.w3.org/2000/svg">
<mask id="mask0_4818_4749" style="mask-type:luminance" maskUnits="userSpaceOnUse" x="-7" y="11" width="66" height="52">
<path d="M58.0716 46.4612L3.03452 11.683L-6.79447 27.2421L48.2435 62.0225L58.0716 46.4612Z" fill="white"/>
</mask>
<g mask="url(#mask0_4818_4749)">
<mask id="mask1_4818_4749" style="mask-type:luminance" maskUnits="userSpaceOnUse" x="-7" y="11" width="66" height="52">
<path d="M3.09411 11.7203L58.1312 46.4991L48.303 62.0604L-6.73491 27.2794L3.09411 11.7203Z" fill="white"/>
</mask>
<g mask="url(#mask1_4818_4749)">
<mask id="mask2_4818_4749" style="mask-type:luminance" maskUnits="userSpaceOnUse" x="-7" y="11" width="66" height="52">
<path d="M3.09389 11.7203L58.131 46.499L48.3027 62.0603L-6.73517 27.2794L3.09389 11.7203Z" fill="white"/>
</mask>
<g mask="url(#mask2_4818_4749)">
<path d="M3.67911 12.722C3.62525 12.7448 3.59497 12.7838 3.58388 12.8404C3.39518 12.8967 3.203 12.6393 3.01356 12.8458C2.40989 12.9811 2.31276 13.4452 2.29675 13.9587C2.2564 15.3937 2.45054 16.8077 2.73222 18.2086C3.7426 23.2264 5.75301 27.8016 8.59629 32.0675C13.5578 39.5131 20.4196 44.4467 28.6807 47.5597C32.5101 49.0037 36.5193 49.7524 40.5655 50.3147C42.9442 50.6441 45.3336 50.8295 47.72 51.0734C47.8092 51.0448 47.8953 51.0148 47.9867 50.9853C48.079 51.0379 48.1965 51.071 48.2506 51.1481C48.2506 51.1481 48.2506 51.1481 48.2501 51.1533C48.291 51.2153 48.2 51.2722 48.1146 51.2644C47.3125 51.7547 46.4307 52.0601 45.5358 52.3179C44.9205 52.4952 44.34 52.7118 43.8308 53.104C42.506 53.4741 41.8966 54.3815 42.081 55.6242C44.7711 56.156 47.1724 55.2745 49.5422 54.1775C50.423 53.77 51.3291 53.423 52.2303 53.0628C54.3888 52.2005 54.0279 52.2042 54.3168 50.3355C54.3809 49.9163 54.347 49.4892 54.2713 49.0703C54.243 48.916 54.2027 48.7763 54.0616 48.6871C54.11 48.2064 53.769 47.9851 53.4267 47.7869C52.4119 47.1976 51.3916 46.6204 50.3689 46.0367C50.2342 45.7925 49.9956 45.6901 49.7507 45.5976C49.6261 45.3472 49.384 45.2486 49.1481 45.1402C49.0879 44.9479 48.899 44.8843 48.7635 44.7705C46.9262 43.2144 45.2917 41.4742 43.9579 39.4581C43.858 39.3059 43.7465 39.163 43.6386 39.0163C43.5148 38.8405 43.3714 38.6397 43.1368 38.7133C42.9607 38.7697 42.8501 39.0064 42.8762 39.1616C42.9909 39.8557 42.6622 40.5072 42.7141 41.1874C42.7365 41.4915 42.8824 41.7588 43.0344 42.0289C44.1927 44.1163 45.6891 45.941 47.3743 47.617C47.526 47.7672 47.705 47.8971 47.8185 48.0717C47.9531 48.2759 47.7982 48.4018 47.6164 48.483C47.4283 48.329 47.2326 48.3204 47.0249 48.4388C46.8276 48.3333 46.6243 48.2451 46.4041 48.3832C46.3716 48.3304 46.3322 48.3253 46.2872 48.3648C46.0994 48.2582 45.911 48.1894 45.7003 48.3064C45.5578 48.2602 45.4184 48.1954 45.2711 48.176C43.6554 47.961 42.0362 47.7699 40.4226 47.5341C38.9557 47.323 37.5011 47.0647 36.0405 46.8237C35.6639 46.7134 35.2898 46.5896 34.9116 46.4949C31.2227 45.5553 27.7033 44.1843 24.3977 42.2876C23.2174 41.6108 22.0586 40.8984 20.8908 40.2019C20.7495 39.9403 20.4951 39.8489 20.2403 39.7501C20.1127 39.4983 19.87 39.405 19.6295 39.3108C19.5249 39.0603 19.2853 38.9883 19.0715 38.879C19.0175 38.7094 18.8843 38.6347 18.7222 38.5959C18.6991 38.5347 18.6558 38.506 18.5884 38.5065C18.5248 38.318 18.3402 38.2527 18.2113 38.1364C17.5637 37.5535 16.8158 37.0885 16.2405 36.4257C16.1377 36.4446 15.9095 36.3432 16.0984 36.6119C16.2226 36.795 16.2019 36.8528 16.1269 36.8661C16.0629 36.8752 15.96 36.8541 15.8798 36.8469C13.8955 34.9413 12.1646 32.8202 10.5706 30.5848C10.442 30.3634 10.3125 30.1398 10.1839 29.9184C9.41556 28.5987 8.64556 27.2746 7.87804 25.9571C7.88664 25.8939 7.87337 25.8389 7.84426 25.7949C7.82312 25.7654 7.79624 25.7405 7.7628 25.7182C7.77651 25.6155 7.735 25.5387 7.64785 25.4866C7.66593 25.3823 7.62525 25.3077 7.53591 25.2564C7.55618 25.1513 7.51467 25.0744 7.42232 25.0218C7.44342 24.9189 7.40847 24.8396 7.31393 24.7878C7.33941 24.6832 7.30227 24.6047 7.20856 24.5551L7.20691 24.5507C7.23102 24.4491 7.19607 24.3698 7.10537 24.3216L7.10153 24.318C7.07397 24.2385 7.03985 24.1614 7.00355 24.0851L6.99805 24.0771C7.02217 23.9756 6.99325 23.899 6.90089 23.8464L6.8954 23.8384C6.91951 23.7369 6.8906 23.6603 6.79824 23.6077L6.79275 23.5997C6.82124 23.4965 6.78712 23.4194 6.69476 23.3668L6.69311 23.3624C6.71941 23.26 6.68748 23.182 6.59513 23.1294L6.59347 23.125C6.61977 23.0226 6.58702 22.9425 6.49602 22.8869C6.24217 22.1353 5.98832 21.3838 5.73446 20.6323C5.47802 20.2841 5.41761 19.8595 5.30418 19.4599C5.3383 19.4245 5.37821 19.4045 5.41758 19.3896C5.48102 19.3656 5.54533 19.3639 5.6179 19.384C5.56352 19.0745 5.5332 18.756 5.33989 18.4891C5.27403 18.4139 5.22047 18.3317 5.20161 18.2288C5.24861 18.3136 5.29206 18.4021 5.33989 18.4891C5.3432 18.3853 5.33421 18.2887 5.22873 18.2411C5.28804 18.0937 5.25324 17.9619 5.16318 17.8359C5.20236 17.7411 5.19176 17.6601 5.10267 17.5963C5.11638 17.4936 5.10822 17.3992 5.01883 17.328C5.03458 17.277 5.032 17.2305 4.99905 17.183C4.99857 16.8707 4.93656 16.5741 4.79959 16.2909C4.78866 16.0701 4.7843 15.8467 4.6604 15.651C4.7044 15.5095 4.64607 15.3815 4.59951 15.2516C4.55774 14.38 4.3559 13.5213 4.48314 12.601C4.17112 12.7012 3.89883 12.4766 3.67911 12.722ZM46.2183 48.5333C46.2175 48.5311 46.2175 48.5311 46.2145 48.5297C46.2131 48.5328 46.2161 48.5341 46.2161 48.5341C46.2131 48.5328 46.2115 48.5284 46.2115 48.5284L46.2145 48.5297C46.2167 48.5289 46.218 48.5259 46.2172 48.5237C46.2189 48.5281 46.2167 48.5289 46.2183 48.5333ZM6.2498 23.6047C6.25422 23.6231 6.25728 23.6444 6.26253 23.6649C6.26005 23.6583 6.25621 23.6548 6.25456 23.6504C6.24795 23.6329 6.23998 23.6184 6.23555 23.6001C6.23638 23.6023 6.24158 23.6028 6.2498 23.6047ZM7.86516 25.9495C7.86297 25.9503 7.85995 25.9489 7.86078 25.9511C7.85422 25.9536 7.84848 25.9583 7.84109 25.9586L7.81839 25.9646L7.85995 25.9489C7.86214 25.9481 7.86132 25.9459 7.86268 25.9429C7.86132 25.9459 7.86214 25.9481 7.86516 25.9495ZM6.15506 23.5855C6.18189 23.5904 6.20571 23.5939 6.22817 23.6004C6.23614 23.6149 6.24275 23.6324 6.25072 23.6469C6.23094 23.6143 6.19968 23.5911 6.15506 23.5855ZM6.29203 23.7563C6.29947 23.7759 6.30909 23.7948 6.31351 23.8131C6.31215 23.8161 6.31434 23.8153 6.31298 23.8183C6.30773 23.7978 6.29947 23.7759 6.29203 23.7563ZM3.2215 14.3095C3.22068 14.3073 3.21902 14.3029 3.21684 14.3038L3.21518 14.2994C3.21737 14.2986 3.21572 14.2942 3.21708 14.2912C3.22175 14.2969 3.22121 14.3021 3.2215 14.3095ZM3.24268 14.6965C3.23913 14.7003 3.23777 14.7033 3.23943 14.7077C3.24297 14.7038 3.2405 14.6973 3.24268 14.6965ZM5.07932 18.13C5.0607 18.127 5.04072 18.1271 5.01938 18.1301C5.02483 18.1181 5.02808 18.1068 5.03353 18.0948C5.04806 18.1068 5.06478 18.118 5.07932 18.13ZM4.99914 17.4479C4.98538 17.4181 4.98475 17.3833 4.99588 17.3466C4.99588 17.3466 4.99588 17.3466 4.99671 17.3488C4.98995 17.3839 4.99058 17.4186 4.99914 17.4479Z" fill="#749B3F"/>
</g>
</g>
</g>
</svg>
