<svg width="22" height="26" viewBox="0 0 22 26" fill="none" xmlns="http://www.w3.org/2000/svg">
<path d="M17.7806 13.567C17.7509 10.344 20.4873 8.776 20.6124 8.703C19.0627 6.5 16.6606 6.199 15.8165 6.175C13.7991 5.968 11.8422 7.352 10.8145 7.352C9.76625 7.352 8.18369 6.195 6.47805 6.229C4.28317 6.262 2.22984 7.501 1.10369 9.425C-1.22041 13.348 0.512919 19.113 2.73959 22.284C3.85343 23.837 5.15497 25.571 6.85856 25.51C8.52523 25.443 9.14779 24.474 11.1591 24.474C13.1519 24.474 13.7365 25.51 15.4739 25.471C17.2627 25.443 18.3888 23.911 19.4637 22.344C20.7509 20.564 21.2678 18.811 21.2883 18.721C21.2463 18.707 17.8145 17.43 17.7806 13.567Z" fill="white"/>
<path d="M14.4986 4.089C15.395 2.996 16.0083 1.509 15.838 0C14.5406 0.056 12.918 0.875 11.9837 1.944C11.157 2.886 10.4186 4.43 10.6093 5.882C12.0668 5.988 13.5632 5.165 14.4986 4.089Z" fill="white"/>
</svg>
