<svg width="31" height="33" viewBox="0 0 31 33" fill="none" xmlns="http://www.w3.org/2000/svg">
<path d="M5 12C4.73478 12 4.48043 12.1054 4.29289 12.2929C4.10536 12.4804 4 12.7348 4 13C4 13.2652 4.10536 13.5196 4.29289 13.7071C4.48043 13.8946 4.73478 14 5 14H6.22L6.525 15.222C6.52803 15.2361 6.53136 15.2501 6.535 15.264L7.893 20.694L7 21.586C5.74 22.846 6.632 25 8.414 25H17C17.2652 25 17.5196 24.8946 17.7071 24.7071C17.8946 24.5196 18 24.2652 18 24C18 23.7348 17.8946 23.4804 17.7071 23.2929C17.5196 23.1054 17.2652 23 17 23H8.414L9.414 22H16C16.1857 21.9999 16.3676 21.9481 16.5255 21.8504C16.6834 21.7528 16.811 21.6131 16.894 21.447L19.894 15.447C19.9702 15.2946 20.0061 15.1252 19.9985 14.955C19.9908 14.7848 19.9398 14.6194 19.8502 14.4744C19.7606 14.3294 19.6355 14.2098 19.4867 14.1267C19.3379 14.0437 19.1704 14.0001 19 14H8.28L7.97 12.757C7.91583 12.5408 7.79095 12.3488 7.61521 12.2117C7.43946 12.0745 7.22293 12 7 12H5ZM18 27.5C18 27.8978 17.842 28.2794 17.5607 28.5607C17.2794 28.842 16.8978 29 16.5 29C16.1022 29 15.7206 28.842 15.4393 28.5607C15.158 28.2794 15 27.8978 15 27.5C15 27.1022 15.158 26.7206 15.4393 26.4393C15.7206 26.158 16.1022 26 16.5 26C16.8978 26 17.2794 26.158 17.5607 26.4393C17.842 26.7206 18 27.1022 18 27.5ZM8.5 29C8.89782 29 9.27936 28.842 9.56066 28.5607C9.84196 28.2794 10 27.8978 10 27.5C10 27.1022 9.84196 26.7206 9.56066 26.4393C9.27936 26.158 8.89782 26 8.5 26C8.10218 26 7.72064 26.158 7.43934 26.4393C7.15804 26.7206 7 27.1022 7 27.5C7 27.8978 7.15804 28.2794 7.43934 28.5607C7.72064 28.842 8.10218 29 8.5 29Z" fill="#749B3F"/>
<rect x="12" y="1" width="18" height="18" rx="9" fill="#EE4536"/>
<rect x="12" y="1" width="18" height="18" rx="9" stroke="#EDEDED" stroke-width="2"/>
<path d="M20.324 14.096C19.828 14.096 19.372 14 18.956 13.808C18.548 13.608 18.212 13.344 17.948 13.016C17.684 12.688 17.532 12.316 17.492 11.9H18.404C18.444 12.148 18.556 12.372 18.74 12.572C18.924 12.772 19.152 12.932 19.424 13.052C19.704 13.164 20.004 13.22 20.324 13.22C20.892 13.22 21.332 13.076 21.644 12.788C21.964 12.5 22.124 12.152 22.124 11.744C22.124 11.472 22.048 11.224 21.896 11C21.752 10.768 21.552 10.584 21.296 10.448C21.04 10.304 20.744 10.232 20.408 10.232H19.496V9.404H20.3C20.58 9.404 20.836 9.352 21.068 9.248C21.308 9.136 21.5 8.984 21.644 8.792C21.788 8.592 21.86 8.364 21.86 8.108C21.86 7.732 21.724 7.428 21.452 7.196C21.188 6.956 20.796 6.836 20.276 6.836C19.788 6.836 19.396 6.948 19.1 7.172C18.812 7.396 18.64 7.66 18.584 7.964H17.708C17.748 7.636 17.868 7.32 18.068 7.016C18.276 6.712 18.564 6.46 18.932 6.26C19.3 6.06 19.74 5.96 20.252 5.96C21.036 5.96 21.648 6.16 22.088 6.56C22.536 6.952 22.76 7.456 22.76 8.072C22.76 8.336 22.696 8.588 22.568 8.828C22.448 9.06 22.296 9.26 22.112 9.428C21.928 9.596 21.744 9.708 21.56 9.764C22.024 9.94 22.384 10.204 22.64 10.556C22.896 10.908 23.024 11.296 23.024 11.72C23.024 12.192 22.904 12.608 22.664 12.968C22.424 13.32 22.1 13.596 21.692 13.796C21.284 13.996 20.828 14.096 20.324 14.096Z" fill="#FFEFEB"/>
</svg>
