<svg width="20" height="20" viewBox="0 0 20 20" fill="none" xmlns="http://www.w3.org/2000/svg">
<g clip-path="url(#clip0_4818_9602)">
<path d="M10 20C15.5228 20 20 15.5228 20 10C20 4.47715 15.5228 0 10 0C4.47715 0 0 4.47715 0 10C0 15.5228 4.47715 20 10 20Z" fill="#3C5A9A"/>
<path d="M13.2516 3.06946H11.0364C9.72179 3.06946 8.25958 3.62236 8.25958 5.52793C8.266 6.1919 8.25958 6.82779 8.25958 7.54345H6.73877V9.96352H8.30665V16.9305H11.1877V9.91754H13.0893L13.2614 7.53666H11.1381C11.1381 7.53666 11.1428 6.47754 11.1381 6.16997C11.1381 5.41693 11.9216 5.46005 11.9688 5.46005C12.3416 5.46005 13.0666 5.46114 13.2527 5.46005V3.06946H13.2516Z" fill="white"/>
</g>
<defs>
<clipPath id="clip0_4818_9602">
<rect width="20" height="20" fill="white"/>
</clipPath>
</defs>
</svg>
