<svg width="20" height="20" viewBox="0 0 20 20" fill="none" xmlns="http://www.w3.org/2000/svg">
<g clip-path="url(#clip0_4818_9585)">
<g clip-path="url(#clip1_4818_9585)">
<path d="M19.5399 8.32776C19.6274 8.32776 19.6984 8.39875 19.6984 8.48631V10.1509C19.6984 10.7739 19.6406 11.3831 19.5296 11.9741C18.671 16.5642 14.6271 20.0331 9.77994 19.9997C4.34108 19.9622 -0.0116508 15.5676 0.000391137 10.1287C0.0123562 4.69955 4.41741 0.30188 9.84939 0.30188C12.5107 0.30188 14.9253 1.35765 16.6981 3.07261C16.7621 3.13452 16.7638 3.23655 16.7008 3.29949L14.3458 5.65444C14.2852 5.71508 14.1872 5.71665 14.1251 5.65752C13.0124 4.5984 11.507 3.94818 9.84939 3.94818C6.42642 3.94818 3.67004 6.68498 3.6468 10.1079C3.62345 13.5532 6.40949 16.3536 9.84939 16.3536C12.6404 16.3536 15.001 14.5098 15.7794 11.9741H10.0079C9.92037 11.9741 9.84939 11.9031 9.84939 11.8155V8.48627C9.84939 8.39871 9.92037 8.32773 10.0079 8.32773H19.5399V8.32776Z" fill="#2196F3"/>
<path d="M19.5392 8.32776H18.3502C18.4377 8.32776 18.5087 8.39874 18.5087 8.48631V10.1509C18.5087 10.7739 18.4508 11.3831 18.3398 11.9741C17.5207 16.3531 13.8025 19.7116 9.25354 19.9822C9.42759 19.9924 9.6028 19.9984 9.77923 19.9997C14.6264 20.0331 18.6703 16.5642 19.5289 11.9741C19.6398 11.3831 19.6977 10.7739 19.6977 10.1509V8.48627C19.6977 8.39874 19.6267 8.32776 19.5392 8.32776Z" fill="#1E88E5"/>
<path d="M4.21543 7.55331L1.22424 5.39206C2.90235 2.3569 6.13606 0.30188 9.84938 0.30188C12.5107 0.30188 14.9253 1.35765 16.6981 3.07261C16.7621 3.13452 16.7637 3.23655 16.7008 3.29949L14.3458 5.65445C14.2853 5.71496 14.1873 5.71685 14.1254 5.65783C13.0127 4.59852 11.5071 3.94822 9.84938 3.94822C7.35127 3.94822 5.19794 5.42495 4.21543 7.55331Z" fill="#F44336"/>
<path d="M3.35132 6.92943L4.21484 7.55334C5.11164 5.61069 6.98403 4.21159 9.20353 3.9821C9.22023 3.98029 9.23627 3.9781 9.25327 3.97648C9.05795 3.95794 8.86001 3.94824 8.65979 3.94824C6.4031 3.94824 4.43637 5.13794 3.35132 6.92943Z" fill="#E53935"/>
<path d="M15.5088 3.07261C15.5728 3.13452 15.5745 3.23655 15.5115 3.29953L13.6001 5.21097C13.7832 5.35024 13.9585 5.49921 14.1248 5.65756C14.1869 5.71669 14.2849 5.71512 14.3455 5.65448L16.7005 3.29953C16.7635 3.23655 16.7618 3.13455 16.6978 3.07261C14.925 1.35765 12.5104 0.30188 9.84911 0.30188C9.6494 0.30188 9.45127 0.308536 9.25452 0.32027C11.6798 0.464735 13.869 1.4863 15.5088 3.07261Z" fill="#E53935"/>
<path d="M17.0736 16.8443C15.275 18.7852 12.7036 20 9.84876 20C5.99278 20 2.65442 17.784 1.03772 14.5558L4.0915 12.4631C5.00788 14.7433 7.24046 16.3536 9.84876 16.3536C11.4856 16.3536 12.9743 15.7195 14.0825 14.6834L17.0736 16.8443Z" fill="#4CAF50"/>
<path d="M4.09153 12.4631L3.19104 13.0802C4.23692 15.0286 6.29364 16.3536 8.65975 16.3536C8.85985 16.3536 9.05764 16.3438 9.25289 16.3253C6.90416 16.1014 4.93724 14.5676 4.09153 12.4631Z" fill="#43A047"/>
<path d="M9.84912 20C12.704 20 15.2754 18.7852 17.074 16.8443L16.3414 16.3151C14.6526 18.4168 12.1191 19.8111 9.2561 19.9821C9.45231 19.9938 9.64999 20 9.84912 20Z" fill="#43A047"/>
<path d="M3.64634 10.1509C3.64634 10.9682 3.80446 11.7486 4.09181 12.4632L1.038 14.5558C0.373763 13.2305 0 11.7343 0 10.1509C0 8.4249 0.443899 6.80266 1.2239 5.39209L4.21508 7.55334C3.85005 8.34322 3.64634 9.22352 3.64634 10.1509Z" fill="#FFC107"/>
<path d="M3.19129 13.0803L4.09178 12.4632C3.80443 11.7486 3.64631 10.9682 3.64631 10.151C3.64631 9.22354 3.85002 8.34324 4.21505 7.55336L3.35153 6.92944C2.79079 7.85529 2.46535 8.94173 2.45742 10.108C2.45011 11.1834 2.71661 12.1961 3.19129 13.0803Z" fill="#FFB300"/>
</g>
</g>
<defs>
<clipPath id="clip0_4818_9585">
<rect width="20" height="20" fill="white"/>
</clipPath>
<clipPath id="clip1_4818_9585">
<rect width="20" height="20" fill="white" transform="translate(0 0.30188)"/>
</clipPath>
</defs>
</svg>
