<svg width="17" height="14" viewBox="0 0 17 14" fill="none" xmlns="http://www.w3.org/2000/svg">
<path d="M1.25 13.3333C0.916667 13.3333 0.625 13.2083 0.375 12.9583C0.125 12.7083 0 12.4167 0 12.0833V1.25C0 0.916667 0.125 0.625 0.375 0.375C0.625 0.125 0.916667 0 1.25 0H15.4167C15.75 0 16.0417 0.125 16.2917 0.375C16.5417 0.625 16.6667 0.916667 16.6667 1.25V12.0833C16.6667 12.4167 16.5417 12.7083 16.2917 12.9583C16.0417 13.2083 15.75 13.3333 15.4167 13.3333H1.25ZM15.4167 2.39583L8.66667 6.8125C8.61111 6.84028 8.55903 6.86458 8.51042 6.88542C8.4618 6.90625 8.40278 6.91667 8.33333 6.91667C8.26389 6.91667 8.20486 6.90625 8.15625 6.88542C8.10764 6.86458 8.05556 6.84028 8 6.8125L1.25 2.39583V12.0833H15.4167V2.39583ZM8.33333 5.79167L15.3333 1.25H1.35417L8.33333 5.79167ZM1.25 2.54167V1.72256V1.73781V1.25V1.72917V1.71017V2.54167Z" fill="#749B3F"/>
</svg>
