<svg width="14" height="17" viewBox="0 0 14 17" fill="none" xmlns="http://www.w3.org/2000/svg">
<path d="M6.66852 8.125C7.07006 8.125 7.41319 7.98202 7.69792 7.69606C7.98264 7.41012 8.125 7.06637 8.125 6.66481C8.125 6.26327 7.98202 5.92014 7.69606 5.63542C7.41012 5.3507 7.06637 5.20833 6.66481 5.20833C6.26327 5.20833 5.92014 5.35131 5.63542 5.63727C5.35069 5.92322 5.20833 6.26697 5.20833 6.66852C5.20833 7.07006 5.35131 7.4132 5.63727 7.69792C5.92321 7.98264 6.26696 8.125 6.66852 8.125ZM6.66667 15.0208C8.51389 13.3403 9.87847 11.816 10.7604 10.4479C11.6424 9.07986 12.0833 7.875 12.0833 6.83333C12.0833 5.19736 11.5605 3.85781 10.5147 2.81469C9.46904 1.77156 8.18635 1.25 6.66667 1.25C5.14699 1.25 3.86429 1.77156 2.81858 2.81469C1.77286 3.85781 1.25 5.19736 1.25 6.83333C1.25 7.875 1.70139 9.07986 2.60417 10.4479C3.50694 11.816 4.86111 13.3403 6.66667 15.0208ZM6.67708 16.4167C6.58681 16.4167 6.5 16.4028 6.41667 16.375C6.33333 16.3472 6.25694 16.3056 6.1875 16.25C4.11806 14.4306 2.56944 12.7438 1.54167 11.1897C0.513889 9.63561 0 8.18349 0 6.83333C0 4.75 0.670139 3.09028 2.01042 1.85417C3.35069 0.618056 4.90278 0 6.66667 0C8.43056 0 9.98264 0.618056 11.3229 1.85417C12.6632 3.09028 13.3333 4.75 13.3333 6.83333C13.3333 8.18056 12.8194 9.63195 11.7917 11.1875C10.7639 12.7431 9.21528 14.4306 7.14583 16.25C7.07639 16.3056 7.00347 16.3472 6.92708 16.375C6.85069 16.4028 6.76736 16.4167 6.67708 16.4167Z" fill="#749B3F"/>
</svg>
